<svg width="19" height="21" viewBox="0 0 19 21" fill="none" xmlns="http://www.w3.org/2000/svg">
<path fill-rule="evenodd" clip-rule="evenodd" d="M5.857 12.7975C5.233 13.3695 4.41 13.7275 3.5 13.7275C1.57 13.7275 0 12.1575 0 10.2275C0 8.29754 1.57 6.72754 3.5 6.72754C4.729 6.72754 5.808 7.36754 6.433 8.32954L12.117 5.08054C12.048 4.80554 12 4.52354 12 4.22754C12 2.29754 13.57 0.727539 15.5 0.727539C17.43 0.727539 19 2.29754 19 4.22754C19 6.15754 17.43 7.72754 15.5 7.72754C14.59 7.72754 13.767 7.36954 13.142 6.79754L6.991 10.3125C6.986 10.5785 6.946 10.8335 6.883 11.0805L13.143 14.6575C13.767 14.0855 14.59 13.7275 15.5 13.7275C17.43 13.7275 19 15.2975 19 17.2275C19 19.1575 17.43 20.7275 15.5 20.7275C13.57 20.7275 12 19.1575 12 17.2275C12 16.9315 12.048 16.6495 12.117 16.3745L5.857 12.7975ZM15.5 15.7275C16.3284 15.7275 17 16.3991 17 17.2275C17 18.056 16.3284 18.7275 15.5 18.7275C14.6716 18.7275 14 18.056 14 17.2275C14 16.3991 14.6716 15.7275 15.5 15.7275ZM15.5 2.72754C16.3284 2.72754 17 3.39911 17 4.22754C17 5.05597 16.3284 5.72754 15.5 5.72754C14.6716 5.72754 14 5.05597 14 4.22754C14 3.39911 14.6716 2.72754 15.5 2.72754ZM5 10.2275C5 11.056 4.32843 11.7275 3.5 11.7275C2.67157 11.7275 2 11.056 2 10.2275C2 9.39911 2.67157 8.72754 3.5 8.72754C4.32843 8.72754 5 9.39911 5 10.2275Z" fill="#2791D0"/>
</svg>
