<svg width="21" height="26" viewBox="0 0 21 26" fill="none" xmlns="http://www.w3.org/2000/svg">
<path d="M15.0855 12.9984V17.0911H15.8801V12.9984H16.799V12.377H15.8801V11.9419C15.8801 11.6578 15.9304 11.464 16.031 11.3604C16.1316 11.2569 16.3033 11.2051 16.5459 11.2051C16.6939 11.2051 16.8507 11.2199 17.0165 11.2495L17.1363 10.5526C16.8641 10.4993 16.6155 10.4727 16.3906 10.4727C16.0414 10.4727 15.7691 10.5378 15.5738 10.668C15.3815 10.7952 15.2468 10.9624 15.1699 11.1696C15.1137 11.3234 15.0855 11.5587 15.0855 11.8754V12.377H14.3797V12.9984H15.0855Z" fill="#2791D0"/>
<path fill-rule="evenodd" clip-rule="evenodd" d="M12.8927 17.0911V16.4963C12.5938 16.9638 12.1544 17.1976 11.5744 17.1976C11.1985 17.1976 10.8523 17.094 10.5356 16.8869C10.222 16.6797 9.97782 16.3912 9.80322 16.0213C9.63159 15.6484 9.54576 15.2208 9.54576 14.7385C9.54576 14.2679 9.62419 13.8418 9.78103 13.46C9.93787 13.0753 10.1731 12.7809 10.4868 12.5767C10.8005 12.3725 11.1512 12.2704 11.5388 12.2704C11.8229 12.2704 12.0759 12.3311 12.2979 12.4524C12.5198 12.5708 12.7004 12.7261 12.8394 12.9185V10.5836H13.634V17.0911H12.8927ZM10.367 14.7385C10.367 15.3422 10.4942 15.7934 10.7487 16.0923C11.0032 16.3912 11.3036 16.5407 11.6498 16.5407C11.999 16.5407 12.2949 16.3986 12.5376 16.1145C12.7832 15.8275 12.906 15.391 12.906 14.805C12.906 14.1599 12.7817 13.6864 12.5332 13.3846C12.2846 13.0827 11.9783 12.9318 11.6143 12.9318C11.2592 12.9318 10.9618 13.0768 10.7221 13.3668C10.4853 13.6568 10.367 14.1141 10.367 14.7385Z" fill="#2791D0"/>
<path fill-rule="evenodd" clip-rule="evenodd" d="M4.77393 18.8977V12.377H5.50191V12.9895C5.67355 12.7498 5.86738 12.5708 6.08341 12.4524C6.29943 12.3311 6.56133 12.2704 6.8691 12.2704C7.27156 12.2704 7.62667 12.374 7.93444 12.5811C8.2422 12.7883 8.47451 13.0813 8.63135 13.46C8.78819 13.8359 8.86661 14.2487 8.86661 14.6985C8.86661 15.1809 8.77931 15.6159 8.60471 16.0036C8.43308 16.3883 8.18154 16.6842 7.8501 16.8913C7.52162 17.0955 7.17538 17.1976 6.81139 17.1976C6.54506 17.1976 6.30535 17.1414 6.09229 17.0289C5.88218 16.9165 5.70906 16.7744 5.57293 16.6028V18.8977H4.77393ZM5.49747 14.7607C5.49747 15.3673 5.62028 15.8156 5.8659 16.1056C6.11152 16.3957 6.40893 16.5407 6.75812 16.5407C7.11324 16.5407 7.41656 16.3912 7.6681 16.0923C7.9226 15.7905 8.04985 15.3244 8.04985 14.6941C8.04985 14.0933 7.92556 13.6435 7.67698 13.3446C7.43136 13.0458 7.13691 12.8963 6.79363 12.8963C6.45332 12.8963 6.15147 13.0561 5.88809 13.3757C5.62768 13.6924 5.49747 14.154 5.49747 14.7607Z" fill="#2791D0"/>
<path fill-rule="evenodd" clip-rule="evenodd" d="M17.4926 25.4548H1.28392C0.850666 25.4548 0.5 25.0985 0.5 24.6593V0.796152C0.5 0.35653 0.851128 0.000244141 1.28392 0.000244141H12.7886C12.7978 0.000244141 12.8062 0.00273157 12.8146 0.00521417C12.822 0.00742635 12.8294 0.00963469 12.8375 0.0100759C12.9081 0.0147577 12.9759 0.028803 13.0433 0.0526802C13.0513 0.0553957 13.0593 0.0577842 13.0673 0.0601617C13.0827 0.0647528 13.098 0.0693031 13.1129 0.0760889C13.1918 0.113075 13.2661 0.158957 13.3312 0.221694L20.2591 6.9635L20.2616 6.96682C20.2616 6.96682 20.2635 6.97011 20.2651 6.97146C20.2706 6.9765 20.2746 6.98263 20.2786 6.98882C20.2821 6.99413 20.2856 6.99948 20.2901 7.00424C20.3436 7.06369 20.387 7.12877 20.4197 7.19947C20.429 7.21871 20.4358 7.23908 20.4427 7.2597C20.4447 7.26567 20.4467 7.27166 20.4488 7.27765C20.4723 7.34554 20.4857 7.41483 20.4903 7.48693C20.4907 7.49537 20.493 7.50319 20.4951 7.51097C20.4976 7.51958 20.5 7.52815 20.5 7.53749V22.4022C20.5 24.0858 19.1513 25.4548 17.4926 25.4548ZM17.7648 6.74159L13.5725 2.66185V5.28086C13.5725 6.0866 14.218 6.74159 15.0116 6.74159H17.7648ZM12.0033 1.59159H2.06831V23.8634H17.4926C18.2857 23.8634 18.9312 23.2085 18.9312 22.4027V8.33387H15.0116C13.3524 8.33387 12.0033 6.96444 12.0033 5.28133V1.59159Z" fill="#2791D0"/>
</svg>
