<svg width="19" height="20" viewBox="0 0 19 20" fill="none" xmlns="http://www.w3.org/2000/svg">
<path fill-rule="evenodd" clip-rule="evenodd" d="M5.857 12.07C5.233 12.642 4.41 13 3.5 13C1.57 13 0 11.43 0 9.5C0 7.57 1.57 6 3.5 6C4.729 6 5.808 6.64 6.433 7.602L12.117 4.353C12.048 4.078 12 3.796 12 3.5C12 1.57 13.57 0 15.5 0C17.43 0 19 1.57 19 3.5C19 5.43 17.43 7 15.5 7C14.59 7 13.767 6.642 13.142 6.07L6.991 9.585C6.986 9.851 6.946 10.106 6.883 10.353L13.143 13.93C13.767 13.358 14.59 13 15.5 13C17.43 13 19 14.57 19 16.5C19 18.43 17.43 20 15.5 20C13.57 20 12 18.43 12 16.5C12 16.204 12.048 15.922 12.117 15.647L5.857 12.07ZM15.5 15C16.3284 15 17 15.6716 17 16.5C17 17.3284 16.3284 18 15.5 18C14.6716 18 14 17.3284 14 16.5C14 15.6716 14.6716 15 15.5 15ZM15.5 2C16.3284 2 17 2.67157 17 3.5C17 4.32843 16.3284 5 15.5 5C14.6716 5 14 4.32843 14 3.5C14 2.67157 14.6716 2 15.5 2ZM5 9.5C5 10.3284 4.32843 11 3.5 11C2.67157 11 2 10.3284 2 9.5C2 8.67157 2.67157 8 3.5 8C4.32843 8 5 8.67157 5 9.5Z" fill="#2791D0"/>
</svg>
