<svg width="24" height="24" viewBox="0 0 24 24" fill="none" xmlns="http://www.w3.org/2000/svg">
<path d="M14.2594 3.01247H3.71564C3.32733 3.01247 3.01252 3.32728 3.01252 3.71559C3.01252 4.10391 3.32733 4.41872 3.71564 4.41872H14.2594C14.6477 4.41872 14.9625 4.10391 14.9625 3.71559C14.9625 3.32728 14.6477 3.01247 14.2594 3.01247Z" fill="#666666"/>
<path d="M10.4938 13.5562H14.2594C14.6477 13.5562 14.9625 13.871 14.9625 14.2593C14.9625 14.6476 14.6477 14.9625 14.2594 14.9625H10.4938C10.1055 14.9625 9.79064 14.6476 9.79064 14.2593C9.79064 13.871 10.1055 13.5562 10.4938 13.5562Z" fill="#666666"/>
<path d="M7.48125 13.5562H3.71564C3.32733 13.5562 3.01252 13.871 3.01252 14.2593C3.01252 14.6476 3.32733 14.9625 3.71564 14.9625H7.48125C7.86956 14.9625 8.18438 14.6476 8.18438 14.2593C8.18438 13.871 7.86956 13.5562 7.48125 13.5562Z" fill="#666666"/>
<path d="M10.4938 19.5812H14.2594C14.6477 19.5812 14.9625 19.896 14.9625 20.2844C14.9625 20.6727 14.6477 20.9875 14.2594 20.9875H10.4938C10.1055 20.9875 9.79064 20.6727 9.79064 20.2844C9.79064 19.896 10.1055 19.5812 10.4938 19.5812Z" fill="#666666"/>
<path d="M7.48125 19.5812H3.71564C3.32733 19.5812 3.01252 19.896 3.01252 20.2844C3.01252 20.6727 3.32733 20.9875 3.71564 20.9875H7.48125C7.86956 20.9875 8.18438 20.6727 8.18438 20.2844C8.18438 19.896 7.86956 19.5812 7.48125 19.5812Z" fill="#666666"/>
<path d="M10.4938 16.5687H14.2594C14.6477 16.5687 14.9625 16.8835 14.9625 17.2718C14.9625 17.6602 14.6477 17.975 14.2594 17.975H10.4938C10.1055 17.975 9.79064 17.6602 9.79064 17.2718C9.79064 16.8835 10.1055 16.5687 10.4938 16.5687Z" fill="#666666"/>
<path d="M7.48125 16.5687H3.71564C3.32733 16.5687 3.01252 16.8835 3.01252 17.2718C3.01252 17.6602 3.32733 17.975 3.71564 17.975H7.48125C7.86956 17.975 8.18438 17.6602 8.18438 17.2718C8.18438 16.8835 7.86956 16.5687 7.48125 16.5687Z" fill="#666666"/>
<path fill-rule="evenodd" clip-rule="evenodd" d="M3.71564 6.02494H14.2594C14.6477 6.02494 14.9625 6.33975 14.9625 6.72806V11.2468C14.9625 11.6351 14.6477 11.9499 14.2594 11.9499H3.71564C3.32733 11.9499 3.01252 11.6351 3.01252 11.2468V6.72806C3.01252 6.33975 3.32733 6.02494 3.71564 6.02494ZM4.41877 10.5437H13.5563V7.43123H4.41877V10.5437Z" fill="#666666"/>
<path fill-rule="evenodd" clip-rule="evenodd" d="M21.7906 3.01247H17.975V0.703125C17.975 0.314812 17.6602 0 17.2719 0H0.703125C0.314812 0 0 0.314812 0 0.703125V20.2844C0 22.3332 1.66683 24 3.71564 24C3.71564 24 15.396 24 20.2844 24C22.3365 24 24 22.3365 24 20.2844V5.22183C24 4.00359 23.0089 3.01247 21.7906 3.01247ZM17.975 4.41877H19.7311C19.6327 4.67131 19.5813 4.94261 19.5813 5.22188V7.53127H17.975V4.41877ZM3.71564 22.5937C2.44223 22.5937 1.40625 21.5578 1.40625 20.2844V1.40625H16.5688V20.2844C16.5688 21.1574 16.8706 21.9595 17.3747 22.5937H3.71564ZM22.5938 20.2844C22.5938 21.5598 21.5598 22.5938 20.2844 22.5938C19.2541 22.5938 18.3818 21.919 18.0843 20.9875H20.2844C20.6727 20.9875 20.9875 20.6727 20.9875 20.2844C20.9875 19.896 20.6727 19.5812 20.2844 19.5812H17.975V17.975H20.2844C20.6727 17.975 20.9875 17.6602 20.9875 17.2718C20.9875 16.8835 20.6727 16.5687 20.2844 16.5687H17.975V14.9625H20.2844C20.6727 14.9625 20.9875 14.6476 20.9875 14.2593C20.9875 13.871 20.6727 13.5562 20.2844 13.5562H17.975V11.9499H20.2844C20.6727 11.9499 20.9875 11.6351 20.9875 11.2468C20.9875 10.8585 20.6727 10.5437 20.2844 10.5437H17.975V8.93742H20.2844C20.6727 8.93742 20.9875 8.62261 20.9875 8.2343V5.22188C20.9875 4.78317 21.3422 4.41872 21.7906 4.41872C22.2334 4.41872 22.5937 4.77905 22.5937 5.22188V20.2844H22.5938Z" fill="#666666"/>
</svg>
