<svg width="24" height="24" viewBox="0 0 24 24" fill="none" xmlns="http://www.w3.org/2000/svg">
<path d="M3.71563 4.41876H3.7656V5.22186C3.7656 5.61018 4.08041 5.92499 4.46873 5.92499C4.85704 5.92499 5.17185 5.61018 5.17185 5.22186V4.41876H5.22187C5.61018 4.41876 5.92499 4.10394 5.92499 3.71563C5.92499 3.32732 5.61018 3.01251 5.22187 3.01251H3.71563C3.32732 3.01251 3.01251 3.32732 3.01251 3.71563C3.01251 4.10394 3.32727 4.41876 3.71563 4.41876Z" fill="#666666"/>
<path d="M7.48124 5.92499H20.2844C20.6727 5.92499 20.9875 5.61018 20.9875 5.22187C20.9875 4.83355 20.6727 4.51874 20.2844 4.51874H7.48124C7.09292 4.51874 6.77811 4.83355 6.77811 5.22187C6.77811 5.61018 7.09288 5.92499 7.48124 5.92499Z" fill="#666666"/>
<path d="M3.71563 8.9375H20.2844C20.6727 8.9375 20.9875 8.62269 20.9875 8.23438C20.9875 7.84606 20.6727 7.53125 20.2844 7.53125H3.71563C3.32732 7.53125 3.01251 7.84606 3.01251 8.23438C3.01251 8.62269 3.32727 8.9375 3.71563 8.9375Z" fill="#666666"/>
<path d="M9.74061 11.95H3.71563C3.32727 11.95 3.01251 11.6352 3.01251 11.2469C3.01251 10.8586 3.32732 10.5438 3.71563 10.5438H9.74061C10.1289 10.5438 10.4437 10.8586 10.4437 11.2469C10.4437 11.6352 10.1289 11.95 9.74061 11.95Z" fill="#666666"/>
<path fill-rule="evenodd" clip-rule="evenodd" d="M0.703124 0H23.2968C23.6851 0 24 0.314812 24 0.703124V17.2719C24 17.6602 23.6851 17.975 23.2968 17.975H14.2094V19.5812H15.7664C17.5199 19.5812 19.0664 20.8174 19.4126 22.5938H20.2844C20.6727 22.5938 20.9875 22.9086 20.9875 23.2969C20.9875 23.6852 20.6727 24 20.2844 24H3.71563C3.32732 24 3.01251 23.6852 3.01251 23.2969C3.01251 22.9086 3.32732 22.5938 3.71563 22.5938H4.58746C4.70558 21.9875 5.51554 19.5812 8.23358 19.5812H9.79058V17.975H0.703124C0.314812 17.975 0 17.6602 0 17.2719V0.703124C0 0.314812 0.314812 0 0.703124 0ZM17.9643 22.5937C17.5378 21.2647 16.2999 20.9874 15.7664 20.9874H8.23363C6.83581 20.9874 6.20296 22.0726 6.03571 22.5937H17.9643ZM11.1968 17.9749V19.5812H12.8031V17.9749H11.1968ZM1.40625 16.5687H22.5937V14.9625H1.40625V16.5687ZM1.40625 13.5562H22.5937V1.40625H1.40625V13.5562Z" fill="#666666"/>
</svg>
