<svg width="24" height="24" viewBox="0 0 24 24" fill="none" xmlns="http://www.w3.org/2000/svg">
<path d="M12 6.99994C12.5522 6.99994 12.9999 6.55225 12.9999 6C12.9999 5.44775 12.5522 5.00006 12 5.00006C11.4478 5.00006 11.0001 5.44775 11.0001 6C11.0001 6.55225 11.4478 6.99994 12 6.99994Z" fill="#666666"/>
<path d="M9.75 18.9999C9.336 18.9999 9 18.6639 9 18.2499C9 17.8359 9.336 17.4999 9.75 17.4999H11.25V10.5H10.2501C9.83606 10.5 9.50006 10.164 9.50006 9.75C9.50006 9.336 9.83606 9 10.2501 9H12C12.414 9 12.75 9.336 12.75 9.75V17.4999H14.25C14.664 17.4999 15 17.8359 15 18.2499C15 18.6639 14.664 18.9999 14.25 18.9999H9.75Z" fill="#666666"/>
<path fill-rule="evenodd" clip-rule="evenodd" d="M12 24C5.38293 24 0 18.6171 0 12C0 5.38293 5.38293 0 12 0C18.6171 0 24 5.38293 24 12C24 18.6171 18.6171 24 12 24ZM12 1.5C6.21002 1.5 1.5 6.21002 1.5 12C1.5 17.79 6.21002 22.5 12 22.5C17.79 22.5 22.5 17.79 22.5 12C22.5 6.21002 17.79 1.5 12 1.5Z" fill="#666666"/>
</svg>
